<svg width="95" height="40" viewBox="0 0 95 40" fill="none" xmlns="http://www.w3.org/2000/svg">
<g filter="url(#filter0_d_1_39)">
<path d="M25.5156 31V16.3516C25.5156 15.8698 25.4245 15.4206 25.2422 15.0039C25.0599 14.5742 24.8125 14.2031 24.5 13.8906C24.1875 13.5781 23.8164 13.3307 23.3867 13.1484C22.9701 12.9661 22.5208 12.875 22.0391 12.875H20.8477C20.3659 12.875 19.9102 12.9661 19.4805 13.1484C19.0638 13.3307 18.6927 13.5781 18.3672 13.8906C18.0547 14.2031 17.8073 14.5742 17.625 15.0039C17.4427 15.4206 17.3516 15.8698 17.3516 16.3516V31H14.9688V16.3516C14.9688 15.8698 14.8776 15.4206 14.6953 15.0039C14.513 14.5742 14.2591 14.2031 13.9336 13.8906C13.6211 13.5781 13.25 13.3307 12.8203 13.1484C12.4036 12.9661 11.9544 12.875 11.4727 12.875H10.2812C9.79948 12.875 9.34375 12.9661 8.91406 13.1484C8.4974 13.3307 8.13281 13.5781 7.82031 13.8906C7.50781 14.2031 7.26042 14.5742 7.07812 15.0039C6.89583 15.4206 6.80469 15.8698 6.80469 16.3516V31H4.40234V11H5.20312L6.51172 13.0312C7.05859 12.2891 7.74219 11.7031 8.5625 11.2734C9.39583 10.8307 10.3008 10.6094 11.2773 10.6094H11.4727C12.6055 10.6094 13.6276 10.8893 14.5391 11.4492C15.4505 12.0091 16.1536 12.7513 16.6484 13.6758C16.8958 13.2201 17.2018 12.8034 17.5664 12.4258C17.931 12.0482 18.3346 11.7292 18.7773 11.4688C19.2201 11.1953 19.7018 10.987 20.2227 10.8438C20.7435 10.6875 21.2839 10.6094 21.8438 10.6094H22.0391C22.8464 10.6094 23.6081 10.7656 24.3242 11.0781C25.0404 11.3776 25.6654 11.7943 26.1992 12.3281C26.7331 12.862 27.1497 13.487 27.4492 14.2031C27.7617 14.9193 27.918 15.681 27.918 16.4883V31H25.5156ZM45.2812 31L43.9531 28.9688C43.4062 29.7109 42.7227 30.3034 41.9023 30.7461C41.082 31.1758 40.1836 31.3906 39.207 31.3906H38.6016C37.7943 31.3906 37.0326 31.2409 36.3164 30.9414C35.6003 30.6289 34.9753 30.2057 34.4414 29.6719C33.9076 29.138 33.4844 28.513 33.1719 27.7969C32.8724 27.0807 32.7227 26.319 32.7227 25.5117V11H35.125V25.6484C35.125 26.1302 35.2161 26.5859 35.3984 27.0156C35.5807 27.4323 35.8281 27.7969 36.1406 28.1094C36.4531 28.4219 36.8177 28.6693 37.2344 28.8516C37.6641 29.0339 38.1198 29.125 38.6016 29.125H40.2031C40.6849 29.125 41.1341 29.0339 41.5508 28.8516C41.9805 28.6693 42.3516 28.4219 42.6641 28.1094C42.9766 27.7969 43.224 27.4323 43.4062 27.0156C43.5885 26.5859 43.6797 26.1302 43.6797 25.6484V11H46.082V31H45.2812ZM64.6367 25.9219C64.6367 26.7292 64.474 27.4714 64.1484 28.1484C63.8229 28.8125 63.3802 29.3854 62.8203 29.8672C62.2604 30.349 61.6094 30.7266 60.8672 31C60.138 31.2604 59.3698 31.3906 58.5625 31.3906H56.9609C56.1536 31.3906 55.3789 31.2409 54.6367 30.9414C53.9076 30.6289 53.263 30.2057 52.7031 29.6719C52.1562 29.138 51.7135 28.513 51.375 27.7969C51.0495 27.0807 50.8867 26.319 50.8867 25.5117V24.7109L53.2891 24.3203V25.6484C53.2891 26.1302 53.3867 26.5859 53.582 27.0156C53.7904 27.4323 54.0638 27.7969 54.4023 28.1094C54.7409 28.4219 55.1315 28.6693 55.5742 28.8516C56.0169 29.0339 56.4792 29.125 56.9609 29.125H58.5625C59.0443 29.125 59.5065 29.0534 59.9492 28.9102C60.3919 28.7669 60.7826 28.5651 61.1211 28.3047C61.4727 28.0312 61.7461 27.7057 61.9414 27.3281C62.1497 26.9505 62.2539 26.5208 62.2539 26.0391C62.2539 25.3229 62.0977 24.737 61.7852 24.2812C61.4727 23.8255 61.056 23.4479 60.5352 23.1484C60.0273 22.8359 59.4414 22.582 58.7773 22.3867C58.1263 22.1784 57.4557 21.9766 56.7656 21.7812C56.0755 21.5729 55.3984 21.3385 54.7344 21.0781C54.0833 20.8177 53.4974 20.4792 52.9766 20.0625C52.4688 19.6328 52.0586 19.099 51.7461 18.4609C51.4336 17.8229 51.2773 17.0286 51.2773 16.0781C51.2773 15.2708 51.4336 14.5352 51.7461 13.8711C52.0586 13.194 52.4818 12.6146 53.0156 12.1328C53.5495 11.651 54.168 11.2799 54.8711 11.0195C55.5872 10.7461 56.349 10.6094 57.1562 10.6094H58.5625C59.3698 10.6094 60.1315 10.7656 60.8477 11.0781C61.5638 11.3776 62.1888 11.7943 62.7227 12.3281C63.2565 12.862 63.6732 13.487 63.9727 14.2031C64.2852 14.9193 64.4414 15.681 64.4414 16.4883V16.5664L62.0391 16.957V16.3516C62.0391 15.8698 61.9479 15.4206 61.7656 15.0039C61.5833 14.5742 61.3359 14.2031 61.0234 13.8906C60.7109 13.5781 60.3398 13.3307 59.9102 13.1484C59.4935 12.9661 59.0443 12.875 58.5625 12.875H57.1562C56.6745 12.875 56.2188 12.9466 55.7891 13.0898C55.3724 13.2331 55.0078 13.4414 54.6953 13.7148C54.3828 13.9753 54.1354 14.2943 53.9531 14.6719C53.7708 15.0495 53.6797 15.4792 53.6797 15.9609C53.6797 16.651 53.8359 17.2174 54.1484 17.6602C54.4609 18.0898 54.8711 18.4544 55.3789 18.7539C55.8997 19.0534 56.4857 19.3073 57.1367 19.5156C57.8008 19.7109 58.4714 19.9193 59.1484 20.1406C59.8385 20.349 60.5091 20.5898 61.1602 20.8633C61.8242 21.1367 62.4102 21.4883 62.918 21.918C63.4388 22.3477 63.8555 22.888 64.168 23.5391C64.4805 24.1771 64.6367 24.9714 64.6367 25.9219ZM69.8516 6.19531V2.99219H72.6445V6.19531H69.8516ZM70.0469 31V11H72.4492V31H70.0469Z" fill="#FF7A01"/>
</g>
<defs>
<filter id="filter0_d_1_39" x="0.402344" y="2.99219" width="76.2422" height="36.3984" filterUnits="userSpaceOnUse" color-interpolation-filters="sRGB">
<feFlood flood-opacity="0" result="BackgroundImageFix"/>
<feColorMatrix in="SourceAlpha" type="matrix" values="0 0 0 0 0 0 0 0 0 0 0 0 0 0 0 0 0 0 127 0" result="hardAlpha"/>
<feOffset dy="4"/>
<feGaussianBlur stdDeviation="2"/>
<feComposite in2="hardAlpha" operator="out"/>
<feColorMatrix type="matrix" values="0 0 0 0 0 0 0 0 0 0 0 0 0 0 0 0 0 0 0.25 0"/>
<feBlend mode="normal" in2="BackgroundImageFix" result="effect1_dropShadow_1_39"/>
<feBlend mode="normal" in="SourceGraphic" in2="effect1_dropShadow_1_39" result="shape"/>
</filter>
</defs>
</svg>
